<svg xmlns="http://www.w3.org/2000/svg" width="1200" height="675" viewBox="0 0 1200 675"><rect width="1200" height="675" fill="#05070A"/><g stroke="#1F2A36" stroke-width="1"><path d="M0 0V675"/><path d="M80 0V675"/><path d="M160 0V675"/><path d="M240 0V675"/><path d="M320 0V675"/><path d="M400 0V675"/><path d="M480 0V675"/><path d="M560 0V675"/><path d="M640 0V675"/><path d="M720 0V675"/><path d="M800 0V675"/><path d="M880 0V675"/><path d="M960 0V675"/><path d="M1040 0V675"/><path d="M1120 0V675"/><path d="M1200 0V675"/><path d="M0 35H1200"/><path d="M0 115H1200"/><path d="M0 195H1200"/><path d="M0 275H1200"/><path d="M0 355H1200"/><path d="M0 435H1200"/><path d="M0 515H1200"/><path d="M0 595H1200"/><path d="M0 675H1200"/></g><text x="44" y="64" fill="#E6EDF3" font-size="34" font-family="Space Grotesk, Arial" font-weight="700">Journal Loss Review</text><text x="44" y="95" fill="#9BA8B5" font-size="18" font-family="Inter, Arial">Educational chart evidence · not a trade signal</text><g transform="translate(80 160)"><line x1="0" y1="180" x2="0" y2="260" stroke="#F05252" stroke-width="4"/><rect x="-14" y="195" width="28" height="55" fill="#F05252" opacity="0.92"/><line x1="55" y1="162" x2="55" y2="240" stroke="#18C37E" stroke-width="4"/><rect x="41" y="179" width="28" height="71" fill="#18C37E" opacity="0.92"/><line x1="110" y1="144" x2="110" y2="220" stroke="#18C37E" stroke-width="4"/><rect x="96" y="163" width="28" height="87" fill="#18C37E" opacity="0.92"/><line x1="165" y1="126" x2="165" y2="200" stroke="#F05252" stroke-width="4"/><rect x="151" y="147" width="28" height="103" fill="#F05252" opacity="0.92"/><line x1="220" y1="108" x2="220" y2="180" stroke="#18C37E" stroke-width="4"/><rect x="206" y="131" width="28" height="55" fill="#18C37E" opacity="0.92"/><line x1="275" y1="90" x2="275" y2="260" stroke="#18C37E" stroke-width="4"/><rect x="261" y="115" width="28" height="71" fill="#18C37E" opacity="0.92"/><line x1="330" y1="72" x2="330" y2="240" stroke="#F05252" stroke-width="4"/><rect x="316" y="195" width="28" height="87" fill="#F05252" opacity="0.92"/><line x1="385" y1="180" x2="385" y2="220" stroke="#18C37E" stroke-width="4"/><rect x="371" y="179" width="28" height="103" fill="#18C37E" opacity="0.92"/><line x1="440" y1="162" x2="440" y2="200" stroke="#18C37E" stroke-width="4"/><rect x="426" y="163" width="28" height="55" fill="#18C37E" opacity="0.92"/><line x1="495" y1="144" x2="495" y2="180" stroke="#F05252" stroke-width="4"/><rect x="481" y="147" width="28" height="71" fill="#F05252" opacity="0.92"/><line x1="550" y1="126" x2="550" y2="260" stroke="#18C37E" stroke-width="4"/><rect x="536" y="131" width="28" height="87" fill="#18C37E" opacity="0.92"/><line x1="605" y1="108" x2="605" y2="240" stroke="#18C37E" stroke-width="4"/><rect x="591" y="115" width="28" height="103" fill="#18C37E" opacity="0.92"/><line x1="660" y1="90" x2="660" y2="220" stroke="#F05252" stroke-width="4"/><rect x="646" y="195" width="28" height="55" fill="#F05252" opacity="0.92"/><line x1="715" y1="72" x2="715" y2="200" stroke="#18C37E" stroke-width="4"/><rect x="701" y="179" width="28" height="71" fill="#18C37E" opacity="0.92"/><line x1="770" y1="180" x2="770" y2="180" stroke="#18C37E" stroke-width="4"/><rect x="756" y="163" width="28" height="87" fill="#18C37E" opacity="0.92"/><line x1="825" y1="162" x2="825" y2="260" stroke="#F05252" stroke-width="4"/><rect x="811" y="147" width="28" height="103" fill="#F05252" opacity="0.92"/><line x1="880" y1="144" x2="880" y2="240" stroke="#18C37E" stroke-width="4"/><rect x="866" y="131" width="28" height="55" fill="#18C37E" opacity="0.92"/><line x1="935" y1="126" x2="935" y2="220" stroke="#18C37E" stroke-width="4"/><rect x="921" y="115" width="28" height="71" fill="#18C37E" opacity="0.92"/></g><rect x="650" y="225" width="300" height="86" rx="10" fill="#22D3EE" opacity="0.12" stroke="#22D3EE"/><text x="675" y="275" fill="#22D3EE" font-size="22" font-family="JetBrains Mono, monospace">INVALIDATION RESPECTED</text><path d="M640 335 C565 340 520 350 465 390" fill="none" stroke="#F5A524" stroke-width="4"/><text x="420" y="420" fill="#F5A524" font-size="20" font-family="JetBrains Mono, monospace">NO RESULT</text><rect x="690" y="450" width="390" height="72" rx="12" fill="#F05252" opacity="0.10" stroke="#F05252"/><text x="715" y="494" fill="#F05252" font-size="22" font-family="JetBrains Mono, monospace">INVALIDATION</text></svg>